<svg width="459" height="459" viewBox="0 0 459 459" fill="none" xmlns="http://www.w3.org/2000/svg">
<path d="M426.848 0H32.1522C5.54348 0 0 16.6304 0 31.0435V427.957C0 442.37 5.54348 459 32.1522 459H426.848C453.457 459 459 442.37 459 427.957V31.0435C459 16.6304 453.457 0 426.848 0Z" fill="#FECD70"/>
<path fill-rule="evenodd" clip-rule="evenodd" d="M106.695 139.441C109.019 131.998 112.154 121.957 123.323 121.957H361.804C396.582 121.957 398.275 135.058 394.098 151.767C389.737 169.213 383.484 196.006 377.208 222.902C369.185 257.283 361.122 291.831 356.922 307.233C349.469 334.559 339.532 337.043 322.143 337.043H93.5991C65.7763 337.043 61.3032 324.623 63.7889 314.686L105.934 141.83C106.184 141.078 106.435 140.276 106.695 139.441ZM183.605 155.612C181.784 153.788 179.584 152.876 177.005 152.876C174.274 152.876 171.998 153.788 170.177 155.612C168.356 157.284 167.446 159.488 167.446 162.224V303.13C167.446 305.715 168.28 307.919 169.949 309.743C171.618 311.567 173.894 312.479 176.777 312.479C179.356 312.479 181.557 311.567 183.377 309.743C185.35 307.919 186.336 305.715 186.336 303.13V240.201H272.366V303.13C272.366 305.715 273.277 307.919 275.098 309.743C276.918 311.567 279.118 312.479 281.698 312.479C284.429 312.479 286.705 311.567 288.526 309.743C290.346 307.919 291.257 305.715 291.257 303.13V162.224C291.257 159.488 290.346 157.284 288.526 155.612C286.857 153.788 284.657 152.876 281.925 152.876C279.346 152.876 277.07 153.788 275.098 155.612C273.277 157.284 272.366 159.488 272.366 162.224V222.417H186.336V162.224C186.336 159.488 185.426 157.284 183.605 155.612Z" fill="black"/>
</svg>
