<svg width="545" height="370" viewBox="0 0 545 370" fill="none" xmlns="http://www.w3.org/2000/svg">
<path fill-rule="evenodd" clip-rule="evenodd" d="M135.713 144.666C136.62 150.276 138.029 155.093 139.817 159.214C144.919 168.75 150.734 192.693 135.713 214.007C108.716 252.313 97.5549 288.153 126.671 301.084C129.582 302.377 139.682 304.408 156.272 306.418C172.286 308.357 217.74 309.327 239.253 308.357C239.253 308.357 248.355 306.903 253.326 306.903C261.946 306.903 257.054 308.631 274.5 308.357C305.399 307.872 285.294 251.977 279.5 242C278.955 241.061 280.221 242.91 279.5 242C268.176 222.5 264 205 264 205L263 200.5C263 200.5 256.942 179.714 266.428 159.214C268.743 154.21 269.394 147.452 269.954 141.641C270.014 141.022 270.073 140.413 270.132 139.818C271.452 133.387 269.272 120.195 268.017 114.403C277.584 74.8354 278.382 57.0265 274.014 54.2787C269.647 51.531 258.292 49.2359 247.81 62.037C237.328 74.8381 225.973 79.8469 221.605 80.7511C214.863 79.0459 212.256 78.5186 201.887 78.5186C196.672 78.5186 191.47 79.7535 187.294 80.7447C184.998 81.2897 183.012 81.7611 181.506 81.9128C177.139 81.0086 168.032 72.1275 157.55 59.3264C147.068 46.5252 135.713 45.5451 131.345 51.5681C128.329 55.7278 127.776 72.1248 137.342 111.692C134.382 120.769 133.621 131.732 135.713 144.666Z" fill="black"/>
<path d="M196.812 136.907C196.812 133.028 201.989 135.291 204.577 136.907C207.165 135.291 212.341 133.028 212.341 136.907C212.341 140.787 207.165 144.018 204.577 145.149C201.989 144.018 196.812 140.787 196.812 136.907Z" fill="#FFBAA5"/>
<path d="M186.626 122.156H156.539C156.539 126.844 159.425 135.248 171.097 135.248C182.744 135.248 186.302 126.197 186.626 122.156Z" fill="white"/>
<path d="M253.102 122.156H223.016C223.016 126.844 225.901 135.248 237.574 135.248C249.22 135.248 252.779 126.197 253.102 122.156Z" fill="white"/>
<path d="M181.288 122.156H160.906C160.906 125.281 162.861 130.884 170.768 130.884C178.658 130.884 181.068 124.85 181.288 122.156Z" fill="black"/>
<path d="M247.764 122.156H227.383C227.383 125.281 229.338 130.884 237.245 130.884C245.134 130.884 247.545 124.85 247.764 122.156Z" fill="black"/>
<ellipse cx="165.274" cy="125.067" rx="0.485268" ry="0.969783" fill="white"/>
<path d="M103 307.691H435.5" stroke="#65676B" stroke-width="3" stroke-linecap="round"/>
<ellipse cx="179.34" cy="297.514" rx="19.4107" ry="16.4863" fill="black"/>
<path d="M151.5 227.878C154.221 214.673 159.483 210.345 171.727 213.623L234.481 230.425C246.725 233.703 249.116 240.08 244.865 252.875L228.46 314.05C225.74 327.255 220.478 331.583 208.233 328.305L145.48 311.503C133.236 308.225 130.845 301.847 135.096 289.053L151.5 227.878Z" fill="white"/>
<path d="M148.328 229.46C151.049 216.255 156.311 211.927 168.555 215.205L231.309 232.007C243.553 235.285 245.944 241.662 241.693 254.457L225.288 315.632C222.568 328.837 217.306 333.165 205.061 329.887L142.308 313.085C130.064 309.807 127.673 303.429 131.924 290.635L148.328 229.46Z" fill="#A5B6E4"/>
<path d="M335.635 90.75C334.849 75.3438 338.813 69 351.488 69H416.452C429.128 69 433.087 75.3438 432.288 90.75L432.26 163.25C433.046 178.656 429.083 185 416.407 185H351.443C338.768 185 334.809 178.656 335.607 163.25L335.635 90.75Z" stroke="#FECD70"/>
<path d="M187.916 286.292C172.071 288.825 147.51 272.569 137.211 264.125C129.024 270.458 110.115 285.817 118.988 296.583C130.08 310.041 193.462 317.166 200.593 317.958C207.723 318.75 210.1 317.166 210.1 313.208C210.1 309.25 202.177 308.458 206.931 308.458C208.516 308.458 212.477 308.182 212.477 302.917C212.477 298.167 206.139 297.375 206.139 296.583C206.139 295.792 211.685 296.583 211.685 291.833C211.685 289.458 207.723 283.125 187.916 286.292Z" fill="black"/>
<path d="M325 157.873C328.362 155.633 328.939 147.749 321.808 145.374C302.794 140.624 297.142 145.595 291.702 148.54C272.687 158.831 271.102 184.166 277.441 206.331C282.142 222.773 258.954 216.623 249.711 211.081C252.88 219.526 261.595 239.423 271.102 251.456C282.987 266.498 321.808 268.081 313.093 220.582C305.812 180.899 294.079 165.956 305.17 165.956C306.105 165.956 308.011 168.796 309.132 169.916C310.716 171.499 314.5 168 315.47 165.166C317.055 164.374 319.086 164.414 320.5 163C322 161.5 321.808 160 325 157.873Z" fill="black"/>
<path d="M327.627 84.75C326.841 69.3438 330.805 63 343.481 63H408.444C421.12 63 425.079 69.3438 424.28 84.75L424.252 157.25C425.039 172.656 421.075 179 408.399 179H343.436C330.76 179 326.801 172.656 327.599 157.25L327.627 84.75Z" fill="#FFBAA5"/>
<path d="M350.5 71V54.5" stroke="black" stroke-linecap="round" stroke-linejoin="round"/>
<path d="M341.5 92L409.75 92" stroke="white" stroke-linecap="round" stroke-linejoin="round"/>
<path d="M341.75 107L410 107" stroke="white" stroke-linecap="round" stroke-linejoin="round"/>
<path d="M341.5 122L409.75 122" stroke="white" stroke-linecap="round" stroke-linejoin="round"/>
<path d="M374.5 71.5V55" stroke="black" stroke-linecap="round" stroke-linejoin="round"/>
<path d="M398.5 71.5V55" stroke="black" stroke-linecap="round" stroke-linejoin="round"/>
<rect x="392" y="165.5" width="49" height="49" rx="1.5" fill="white" stroke="#EDEDED"/>
<path d="M305.5 169L298.5 158L329.5 137L336.5 147.5L305.5 169Z" fill="#A5B6E4"/>
<path d="M339.5 137H329.5L336.5 147.5L339.5 137Z" fill="white"/>
<path d="M339.5 137H336.5L338.643 140L339.5 137Z" fill="#A5B6E4"/>
<g filter="url(#filter0_d_1140_52215)">
<path d="M406.138 186.25H401.388C400.585 186.25 400.11 187.148 400.561 187.812L413.595 207.005C414.024 207.637 414.975 207.574 415.317 206.891L432.051 173.447C432.384 172.783 431.901 172 431.157 172H425.518C425.115 172 424.752 172.242 424.596 172.613L415.219 194.956C414.922 195.663 413.972 195.787 413.504 195.179L406.931 186.64C406.741 186.394 406.449 186.25 406.138 186.25Z" fill="#DAE4A5"/>
</g>
<path d="M317.997 150.5C312.797 151.7 309.831 149.333 308.997 148L301.497 149C298.497 151.333 293.697 157 298.497 161C304.497 166 310.997 158 316.997 158C322.997 158 324.497 149 317.997 150.5Z" fill="black"/>
<path d="M308 168.5C306.8 167.3 306.833 165.667 307 165C306.5 163.5 316.997 159 320 158C322.402 157.2 322.001 158.667 321.5 159.5L316.997 163C314.498 165.333 309.2 169.7 308 168.5Z" fill="black"/>
<path d="M408.5 252.5L425 239M423 252.5L441 239" stroke="#A5B6E4"/>
<circle cx="298.5" cy="42" r="5.5" stroke="#A5B6E4"/>
<circle cx="285" cy="39.5" r="2" stroke="#A5B6E4"/>
<path d="M368.208 260.098C370.342 259.384 371.054 257.242 371.054 255.1C371.054 252.958 369.631 248.675 354.69 248.675C357.536 243.677 362.516 231.538 358.959 230.11C355.401 228.682 348.998 241.533 346.864 246.531C345.156 250.529 335.243 251.053 330.5 250.815V282.231H331.923C337.251 282.231 345.841 282.274 353.267 282.406M368.208 260.098C371.054 261.24 371.291 263.906 371.054 265.096C371.054 265.81 370.627 267.38 368.919 267.952M368.208 260.098C361.039 260.098 356.545 259.874 353.978 258.926M368.919 267.952C370.342 269.38 371.054 270.807 371.054 272.235C371.054 273.187 370.769 275.234 369.631 275.805M368.919 267.952H356.824C355.876 267.952 354.453 267.773 353.267 267.238M369.631 275.805C372.477 277.233 372.477 283.659 366.785 282.945C364.727 282.687 359.393 282.516 353.267 282.406M369.631 275.805C361.263 276.247 355.728 276.16 353.267 275.091M365.362 252.958C360.619 252.244 351.133 251.673 351.133 255.1C351.133 256.986 351.96 258.18 353.978 258.926M353.978 258.926C353.03 259.555 351.133 261.526 351.133 264.382C351.133 265.81 352.081 266.702 353.267 267.238M353.267 267.238C352.793 268.19 351.844 270.093 351.844 271.521C351.844 272.337 351.752 274.433 353.267 275.091M353.267 275.091C351.607 276.111 349.852 278.549 353.267 282.406" stroke="#FFBAA5" stroke-width="2"/>
<defs>
<filter id="filter0_d_1140_52215" x="398.383" y="171" width="35.7734" height="39.4453" filterUnits="userSpaceOnUse" color-interpolation-filters="sRGB">
<feFlood flood-opacity="0" result="BackgroundImageFix"/>
<feColorMatrix in="SourceAlpha" type="matrix" values="0 0 0 0 0 0 0 0 0 0 0 0 0 0 0 0 0 0 127 0" result="hardAlpha"/>
<feOffset dy="1"/>
<feGaussianBlur stdDeviation="1"/>
<feComposite in2="hardAlpha" operator="out"/>
<feColorMatrix type="matrix" values="0 0 0 0 0 0 0 0 0 0 0 0 0 0 0 0 0 0 0.05 0"/>
<feBlend mode="normal" in2="BackgroundImageFix" result="effect1_dropShadow_1140_52215"/>
<feBlend mode="normal" in="SourceGraphic" in2="effect1_dropShadow_1140_52215" result="shape"/>
</filter>
</defs>
</svg>
