<svg width="545" height="370" viewBox="0 0 545 370" fill="none" xmlns="http://www.w3.org/2000/svg">
<path d="M67 138.5H168V209.5H96.5M67 138.5H54V209.5H96.5M67 138.5V81H155.5H241.5H300.5V50.25V15H383V50.25H429V133.5V209.5H473.5V273H415.5V303H217.5H96.5V288V273V257V209.5" stroke="#757575" stroke-linecap="round" stroke-linejoin="round" stroke-dasharray="2 2"/>
<rect x="107.5" y="38.5" width="107" height="85" rx="10" fill="#EDEDED"/>
<path d="M204.5 38.5H117.5C111.977 38.5 107.5 42.9772 107.5 48.5V55H214.5V48.5C214.5 42.9772 210.023 38.5 204.5 38.5Z" fill="#FFBAA5"/>
<rect x="120" y="63" width="14" height="14" rx="0.5" stroke="#C4C4C4" stroke-opacity="0.5"/>
<rect x="120" y="86" width="14" height="14" rx="0.5" stroke="#C4C4C4" stroke-opacity="0.5"/>
<rect x="143" y="63" width="14" height="14" rx="0.5" stroke="#C4C4C4" stroke-opacity="0.5"/>
<rect x="143" y="86" width="14" height="14" rx="0.5" stroke="#C4C4C4" stroke-opacity="0.5"/>
<rect x="166" y="63" width="14" height="14" rx="0.5" stroke="#C4C4C4" stroke-opacity="0.5"/>
<rect x="166" y="86" width="14" height="14" rx="0.5" stroke="#C4C4C4" stroke-opacity="0.5"/>
<rect x="189" y="63" width="14" height="14" rx="0.5" stroke="#C4C4C4" stroke-opacity="0.5"/>
<rect x="188.5" y="85.5" width="15" height="15" rx="1" fill="#FFBAA5"/>
<path d="M139.5 31V45" stroke="#FECD70" stroke-width="2" stroke-linecap="round"/>
<path d="M183.5 31.5V45.5" stroke="#FECD70" stroke-width="2" stroke-linecap="round"/>
<path fill-rule="evenodd" clip-rule="evenodd" d="M193.625 190.666C194.532 196.276 195.94 201.093 197.726 205.214C202.825 214.75 208.635 238.693 193.625 260.007C166.649 298.313 154.911 339.487 184.004 352.418C186.914 353.711 197.5 352.418 214.169 352.418C230.287 352.418 275.588 355.327 297.085 354.357C297.085 354.357 306.298 353.98 311.147 352.903C319.875 350.963 328.901 353.176 346.333 352.903C377.208 352.418 347.125 291.916 341.336 281.939C340.772 280.967 339.928 280.159 339.208 279.249C332.083 266.583 327.601 257.36 324.239 251.075C323.72 249.612 323.2 248.216 322.695 246.87L322.48 246.295L322.479 246.292L322.477 246.288C317.915 234.124 314.761 225.714 324.239 205.214C326.553 200.21 327.203 193.452 327.763 187.641C327.822 187.022 327.881 186.413 327.94 185.818C329.259 179.387 327.081 166.195 325.827 160.403C335.386 120.835 336.184 103.026 331.819 100.279C327.455 97.531 316.109 95.2359 305.635 108.037C295.162 120.838 283.815 125.847 279.451 126.751C272.714 125.046 270.109 124.519 259.749 124.519C254.538 124.519 249.339 125.754 245.167 126.745C242.872 127.29 240.888 127.761 239.383 127.913C235.019 127.009 225.919 118.128 215.445 105.326C204.972 92.5252 193.625 91.5451 189.261 97.5681C186.247 101.728 185.695 118.125 195.254 157.692C192.296 166.769 191.535 177.732 193.625 190.666Z" fill="black"/>
<path d="M254.68 182.907C254.68 179.028 259.852 181.291 262.438 182.907C265.024 181.291 270.196 179.028 270.196 182.907C270.196 186.787 265.024 190.018 262.438 191.149C259.852 190.018 254.68 186.787 254.68 182.907Z" fill="#FFBAA5"/>
<path d="M244.501 168.156H214.438C214.438 172.844 217.321 181.248 228.984 181.248C240.622 181.248 244.178 172.197 244.501 168.156Z" fill="white"/>
<path d="M310.93 168.156H280.867C280.867 172.844 283.751 181.248 295.414 181.248C307.051 181.248 310.607 172.197 310.93 168.156Z" fill="white"/>
<path d="M239.162 168.156H218.797C218.797 171.281 220.75 176.884 228.651 176.884C236.535 176.884 238.943 170.85 239.162 168.156Z" fill="black"/>
<path d="M305.592 168.156H285.227C285.227 171.281 287.18 176.884 295.081 176.884C302.964 176.884 305.373 170.85 305.592 168.156Z" fill="black"/>
<ellipse cx="223.165" cy="171.067" rx="0.484892" ry="0.969783" fill="white"/>
<path d="M83.5 353.691H441.222" stroke="#65676B" stroke-width="3" stroke-linecap="round"/>
<path d="M401.746 210.368C389.079 210.366 385.912 209.758 382.746 210.373C359.946 214.808 342.371 253.129 341.579 266.586C336.829 287.961 325.746 262.781 309.913 250.748C294.079 238.715 284.316 258.401 281.413 269.748C271.913 287.164 290.754 331.975 334.454 349.709C389.079 371.875 372.454 267.382 372.454 249.169C372.454 234.636 384.9 227.002 397.787 227.002C414.412 227.002 421.6 210.372 401.746 210.368Z" fill="black"/>
<path d="M122.426 211.439C135.093 211.436 138.26 210.828 141.426 211.443C164.226 215.878 181.801 254.2 182.593 267.656C187.343 289.031 198.426 263.851 214.259 251.818C230.092 239.785 239.856 259.471 242.759 270.818C252.259 288.235 233.418 333.046 189.718 350.779C135.093 372.946 151.718 268.452 151.718 250.239C151.718 235.706 139.272 228.072 126.385 228.072C109.76 228.072 102.571 211.442 122.426 211.439Z" fill="black"/>
<rect x="66.5" y="196" width="87" height="3" rx="1.5" fill="#333333"/>
<rect x="66.5" y="174" width="87" height="3" rx="1.5" fill="#333333"/>
<circle cx="131.5" cy="197" r="9" fill="#A5B6E4"/>
<rect width="87" height="3" rx="1.5" transform="matrix(-1 0 0 1 153.5 152)" fill="#333333"/>
<circle cx="9" cy="9" r="9" transform="matrix(-1 0 0 1 97.5 144)" fill="#FECD70"/>
<circle cx="110.5" cy="175" r="9" fill="#DAE4A5"/>
<rect x="360.5" y="104" width="130" height="95" rx="2" fill="#D1DAF1"/>
<path fill-rule="evenodd" clip-rule="evenodd" d="M364.5 159H403V150C400.667 146.5 395.7 139.5 394.5 139.5C393.3 139.5 389.667 144.167 388 146.5C385.167 142.333 379.2 133.7 378 132.5C376.8 131.3 368.5 143.667 364.5 150V159Z" fill="#A5B6E4"/>
<path d="M364.5 150V120H403V150M364.5 150V159H403V150M364.5 150C368.5 143.667 376.8 131.3 378 132.5C379.2 133.7 385.167 142.333 388 146.5C389.667 144.167 393.3 139.5 394.5 139.5C395.7 139.5 400.667 146.5 403 150" stroke="#A5B6E4"/>
<rect x="406.5" y="129" width="80" height="4" rx="2" fill="white"/>
<rect x="406.5" y="138" width="80" height="4" rx="2" fill="white"/>
<rect x="406.5" y="156" width="80" height="4" rx="2" fill="white"/>
<rect x="364.5" y="164" width="122" height="30" rx="5" fill="white"/>
<rect x="406.5" y="147" width="34" height="4" rx="2" fill="white"/>
<rect x="444.5" y="147" width="42" height="4" rx="2" fill="white"/>
<rect x="406.5" y="120" width="50" height="4" rx="2" fill="white"/>
<rect x="459.5" y="120" width="27" height="4" rx="2" fill="white"/>
<path d="M376.5 186.832C376.5 188.489 375.157 189.832 373.5 189.832C371.843 189.832 370.5 188.489 370.5 186.832C370.5 185.175 371.843 183.832 373.5 183.832C374.268 183.832 374.969 184.121 375.5 184.596C375.937 184.986 376.258 185.503 376.407 186.089C376.468 186.327 376.5 186.575 376.5 186.832Z" fill="#A5B6E4"/>
<path d="M405.093 171C405.093 171.671 404.872 172.291 404.5 172.79C403.953 173.525 403.078 174 402.093 174C400.436 174 399.093 172.657 399.093 171C399.093 169.343 400.436 168 402.093 168C402.861 168 403.562 168.289 404.093 168.764C404.529 169.155 404.851 169.672 405 170.257C405.02 170.336 405.037 170.415 405.05 170.496C405.078 170.66 405.093 170.828 405.093 171Z" fill="#A5B6E4"/>
<path d="M429 186.832C429 188.489 427.657 189.832 426 189.832C424.343 189.832 423 188.489 423 186.832C423 185.175 424.343 183.832 426 183.832C426.768 183.832 427.469 184.121 428 184.596C428.437 184.986 428.758 185.503 428.907 186.089C428.968 186.327 429 186.575 429 186.832Z" fill="#A5B6E4"/>
<path d="M450.093 177C450.093 177.671 449.872 178.291 449.5 178.79C448.953 179.525 448.078 180 447.093 180C445.436 180 444.093 178.657 444.093 177C444.093 175.343 445.436 174 447.093 174C447.861 174 448.562 174.289 449.093 174.764C449.529 175.155 449.851 175.672 450 176.257C450.02 176.336 450.037 176.415 450.05 176.496C450.078 176.66 450.093 176.828 450.093 177Z" fill="#A5B6E4"/>
<path d="M480 183.832C480 185.489 478.657 186.832 477 186.832C475.343 186.832 474 185.489 474 183.832C474 182.175 475.343 180.832 477 180.832C477.768 180.832 478.469 181.121 479 181.596C479.437 181.986 479.758 182.503 479.907 183.089C479.968 183.327 480 183.575 480 183.832Z" fill="#A5B6E4"/>
<path d="M399.135 170.496L375.5 184.596C375.937 184.986 376.258 185.503 376.407 186.089L399.5 172.51C399.241 172.067 399.093 171.551 399.093 171C399.093 170.828 399.107 170.66 399.135 170.496Z" fill="#A5B6E4"/>
<path d="M405.05 170.496C405.078 170.66 405.093 170.828 405.093 171C405.093 171.671 404.872 172.291 404.5 172.79L423.08 186.141C423.25 185.421 423.678 184.802 424.262 184.386L405.05 170.496Z" fill="#A5B6E4"/>
<path d="M428 184.596C428.437 184.986 428.758 185.503 428.907 186.089L444.5 178.51C444.241 178.067 444.093 177.551 444.093 177C444.093 176.828 444.107 176.66 444.135 176.496L428 184.596Z" fill="#A5B6E4"/>
<path d="M450.05 176.496C450.078 176.66 450.093 176.828 450.093 177C450.093 177.671 449.872 178.291 449.5 178.79L474 183.832C474 182.823 474.498 181.93 475.262 181.386L450.05 176.496Z" fill="#A5B6E4"/>
<rect x="364.5" y="109" width="122" height="6" rx="2" fill="#A5B6E4"/>
<circle cx="342.5" cy="51" r="30" fill="#DAE4A5"/>
<path fill-rule="evenodd" clip-rule="evenodd" d="M328.568 42.6379L342.23 51.4206L342.5 51.5944L342.77 51.4206L356.432 42.6379C356.476 42.7501 356.5 42.8723 356.5 43V59C356.5 59.5523 356.052 60 355.5 60H329.5C328.948 60 328.5 59.5523 328.5 59V43C328.5 42.8723 328.524 42.7501 328.568 42.6379ZM329.429 42.0025C329.452 42.0008 329.476 42 329.5 42H355.5C355.524 42 355.548 42.0008 355.571 42.0025L342.5 50.4056L329.429 42.0025Z" fill="white"/>
<circle cx="319.5" cy="30" r="12" fill="#FECD70"/>
<path d="M311.5 28L319 34.5L327 26" stroke="white" stroke-width="2" stroke-linecap="round" stroke-linejoin="round"/>
<rect x="480.5" y="110" width="4" height="4" rx="2" fill="white"/>
<rect x="474.5" y="110" width="4" height="4" rx="2" fill="white"/>
<path d="M459.5 273.5C459.5 270.234 458.586 267.034 456.862 264.26C455.138 261.487 452.672 259.251 449.743 257.806C446.815 256.361 443.54 255.765 440.29 256.084C437.04 256.403 433.944 257.625 431.352 259.612C428.761 261.599 426.777 264.272 425.625 267.327C424.473 270.383 424.199 273.7 424.834 276.904C425.469 280.107 426.988 283.069 429.219 285.454C431.45 287.839 434.303 289.552 437.457 290.4L442 273.5H459.5Z" fill="#FFBAA5"/>
<path d="M437.458 290.4C434.649 289.645 432.072 288.202 429.961 286.201C427.849 284.199 426.27 281.703 425.366 278.938L442 273.5L437.458 290.4Z" fill="#DAE4A5"/>
<path d="M459.5 273.5C459.5 276.189 458.881 278.841 457.69 281.251C456.499 283.662 454.768 285.766 452.633 287.399C450.498 289.033 448.015 290.152 445.377 290.671C442.738 291.19 440.016 291.094 437.421 290.39L442 273.5H459.5Z" fill="#FECD70" fill-opacity="0.4"/>
<circle cx="85.5" cy="275" r="2" fill="white"/>
<circle cx="108.5" cy="275" r="2" fill="white"/>
</svg>
