<svg width="16" height="16" viewBox="0 0 16 16" fill="none" xmlns="http://www.w3.org/2000/svg">
<rect width="16" height="16" fill="white"/>
<path fill-rule="evenodd" clip-rule="evenodd" d="M7.46875 12.3254H3.07812C2.52083 12.2733 1.40625 11.9066 1.40625 10.8566V2.80977C1.42708 2.32018 1.79062 1.33164 3.07812 1.29414C4.36562 1.25664 6.1875 1.27852 6.9375 1.29414C7.04687 1.27333 7.2875 1.30356 7.375 1.59106C7.4625 1.87856 9.81771 8.64836 10.9844 11.9973L8.65625 14.6379C8.54167 14.716 8.26875 14.7254 8.09375 14.1379C7.91875 13.5504 7.60417 12.6848 7.46875 12.3254ZM5.32812 7.07544H6.65625C6.31875 8.37544 5.19271 8.31502 4.67187 8.12231C4.1875 7.83065 3.39687 6.99731 4.10937 5.99731C4.82187 4.99731 5.8125 5.27856 6.21875 5.73169C6.32812 5.87752 6.49858 6.20044 6.8125 5.99731C7.025 5.85981 6.88021 5.62752 6.78125 5.52856C6.63542 5.2994 6.10625 4.84106 5.15625 4.84106C3.50625 4.96606 3.25 6.45565 3.32812 7.18481C3.40625 7.77336 4.06274 8.78775 5.32812 8.76294C6.92187 8.73169 7.17187 7.27856 7.21875 6.88794C7.25625 6.57544 7.09896 6.52856 7.01562 6.54419H5.32812C5.28125 6.53898 5.18125 6.57856 5.15625 6.77856C5.13125 6.97856 5.26042 7.05981 5.32812 7.07544Z" fill="black"/>
<path fill-rule="evenodd" clip-rule="evenodd" d="M11.375 12.5441L9.60937 14.6379C10.4062 14.6587 12.2406 14.6879 13.2031 14.6379C14.1656 14.5879 14.5208 13.6587 14.5781 13.2004C14.5937 10.8723 14.6156 5.98477 14.5781 5.05977C14.5406 4.13477 13.6458 3.71602 13.2031 3.62227H8.64062L10.875 10.0598L11.375 11.5754C11.575 12.1379 11.4583 12.4556 11.375 12.5441ZM12.1875 6.68481C12.1875 6.44731 12.3542 6.40877 12.4375 6.41919C12.5208 6.40877 12.6875 6.44731 12.6875 6.68481V7.09106H13.8437C13.9062 7.09106 14.0312 7.14419 14.0312 7.35669C14.0312 7.56919 13.9062 7.63273 13.8437 7.63794H13.4062C13.3333 7.8619 13.1125 8.38169 12.8125 8.66919C12.9531 8.85669 13.375 9.09106 13.6719 9.20044C13.9094 9.28794 13.9479 9.44523 13.9375 9.51294C13.9167 9.59627 13.825 9.75669 13.625 9.73169C13.375 9.70044 12.6094 9.35669 12.4375 9.07544C12.2656 9.35669 11.5 9.70044 11.25 9.73169C11.05 9.75669 10.9583 9.59627 10.9375 9.51294C10.9271 9.44523 10.9656 9.28794 11.2031 9.20044C11.5 9.09106 11.9219 8.85669 12.0625 8.66919C11.7625 8.38169 11.5417 7.8619 11.4687 7.63794H11.0312C10.9687 7.63273 10.8437 7.56919 10.8437 7.35669C10.8437 7.14419 10.9687 7.09106 11.0312 7.09106H12.1875V6.68481Z" fill="black"/>
<path d="M12.4375 8.27856L12.0469 7.63794H12.4375H12.8281L12.4375 8.27856Z" fill="black"/>
</svg>
