<svg width="20" height="20" viewBox="0 0 20 20" fill="none" xmlns="http://www.w3.org/2000/svg">
<mask id="mask0_535_1523" style="mask-type:luminance" maskUnits="userSpaceOnUse" x="1" y="2" width="17" height="17">
<path fill-rule="evenodd" clip-rule="evenodd" d="M1.66666 2.50037H17.9158V18.7495H1.66666V2.50037Z" fill="white"/>
</mask>
<g mask="url(#mask0_535_1523)">
<path fill-rule="evenodd" clip-rule="evenodd" d="M9.00408 12.3482L12.0516 17.2924C12.1849 17.509 12.3932 17.5065 12.4774 17.4949C12.5616 17.4832 12.7641 17.4315 12.8374 17.1857L16.6482 4.31485C16.7149 4.08735 16.5924 3.93235 16.5374 3.87735C16.4841 3.82235 16.3316 3.70485 16.1107 3.76735L3.23075 7.53902C2.98658 7.61068 2.93325 7.81568 2.92158 7.89985C2.90991 7.98568 2.90658 8.19818 3.12241 8.33402L8.12325 11.4615L12.5416 6.99652C12.7841 6.75152 13.1799 6.74902 13.4257 6.99152C13.6716 7.23402 13.6732 7.63068 13.4307 7.87568L9.00408 12.3482ZM12.4124 18.7498C11.8324 18.7498 11.3007 18.4548 10.9874 17.9482L7.75658 12.7057L2.45991 9.39318C1.88908 9.03568 1.59075 8.39902 1.68325 7.72985C1.77491 7.06068 2.23408 6.52902 2.87908 6.33985L15.7591 2.56818C16.3516 2.39485 16.9866 2.55902 17.4232 2.99402C17.8599 3.43318 18.0224 4.07485 17.8457 4.66985L14.0349 17.5399C13.8441 18.1874 13.3107 18.6448 12.6432 18.734C12.5649 18.744 12.4891 18.7498 12.4124 18.7498Z" fill="black"/>
</g>
</svg>
