<svg fill="none" height="24" viewBox="0 0 24 24" width="24" xmlns="http://www.w3.org/2000/svg"><g fill="#0f0f0f"><path d="m13 4c-.5523 0-1 .44772-1 1s.4477 1 1 1c1.2728 0 2.2557.41989 2.9179 1.08211s1.0821 1.64514 1.0821 2.91789c0 .5523.4477 1 1 1s1-.4477 1-1c0-1.72725-.5801-3.24433-1.6679-4.33211s-2.6049-1.66789-4.3321-1.66789z"/><path d="m5.014 8.00613c.11427-.90373 1.28877-2.13199 2.22088-1.9957l-.00149-.00149c.77912.14805 1.41878 1.32071 1.84034 2.09352.06925.12696.13262.24313.18976.34219.28692.50937.10061 1.02545-.16694 1.24322-.03094.02493-.06338.05068-.09675.07717-.35604.28266-.81866.64986-.71037 1.01836.21057.7166 2.71057 3.2166 3.94017 3.9273.3765.2176.6692-.205.9199-.5669.0592-.0855.1161-.1676.1712-.2371.2094-.2796.7259-.4467 1.2341-.1707.759.442 1.474.9557 2.1352 1.534.3302.276.4077.6839.1789 1.115-.403.7593-1.5686 1.7606-2.4147 1.5571-1.4778-.3553-7.4542-2.6721-9.37387-9.38409-.10052-.29565-.08388-.42009-.06945-.5281z"/><path d="m13 7c-.5523 0-1 .44772-1 1s.4477 1 1 1c.1748 0 .4332.09745.6679.33211.2346.23465.3321.49312.3321.66789 0 .5523.4477 1 1 1s1-.4477 1-1c0-.82523-.4025-1.56676-.9179-2.08211-.5153-.51534-1.2569-.91789-2.0821-.91789z"/><path clip-rule="evenodd" d="m7.51742 23.8312c.02845.0157.05766.03.0875.0428.5427.2334 1.21263-.2877 2.55248-1.3298l1.3426-1.0442c2.6884.089 5.014-.2638 6.812-.8929 2.0107-.7036 3.5916-2.2845 4.2952-4.2952.9696-2.7709.9696-7.85307 0-10.62396-.7036-2.01072-2.2845-3.59164-4.2952-4.29523-3.2017-1.120303-9.48201-1.099404-12.62394 0-2.01073.70359-3.59164 2.28451-4.29523 4.29523-.969575 2.77089-.969575 7.85306 0 10.62396.70359 2.0107 2.2845 3.5916 4.29523 4.2952.39446.138.83565.2894 1.31194.3929 0 1.6974 0 2.5461.51742 2.8312zm1.48258-2.9205v-1.1198c0-.2352-.164-.4385-.39403-.4877-.7619-.1629-1.51921-.3256-2.25735-.5839-1.43624-.5025-2.56546-1.6318-3.06802-3.068-.38189-1.0914-.61495-2.806-.61495-4.6514 0-1.84537.23306-3.56003.61495-4.6514.50256-1.43623 1.63178-2.56546 3.06802-3.06802 1.26763-.44356 3.36851-.71766 5.63118-.72016 2.2624-.0025 4.3763.26691 5.6716.72016 1.4362.50256 2.5655 1.63179 3.068 3.06802.3819 1.09137.615 2.80603.615 4.6514 0 1.8454-.2331 3.56-.615 4.6514-.5025 1.4362-1.6318 2.5655-3.068 3.068-2.1317.7459-4.3924.8297-6.6275.7635-.1168-.0034-.2313.0337-.3235.1054z" fill-rule="evenodd"/></g></svg>