<svg width="28" height="28" viewBox="0 0 28 28" fill="none" xmlns="http://www.w3.org/2000/svg">
<rect width="28" height="28" fill="white"/>
<g clip-path="url(#clip0_59_2131)">
<path d="M19.0398 16.1835C18.7639 16.046 17.4201 15.3888 17.1698 15.298C16.9196 15.2054 16.7363 15.1605 16.5529 15.4355C16.3723 15.7059 15.8462 16.3192 15.6876 16.5007C15.5272 16.6794 15.3677 16.6932 15.0954 16.5694C14.8204 16.4319 13.9377 16.1432 12.8927 15.2082C12.0787 14.4794 11.5323 13.5857 11.371 13.3107C11.2115 13.0357 11.3536 12.8844 11.4902 12.7469C11.6148 12.6232 11.7661 12.4307 11.9036 12.2675C12.0374 12.1016 12.0814 11.9916 12.1758 11.8128C12.2675 11.6203 12.2207 11.4691 12.1529 11.3325C12.0842 11.195 11.5369 9.8475 11.3077 9.31033C11.0877 8.775 10.8613 8.84283 10.6917 8.84283C10.5341 8.82908 10.3517 8.82908 10.1683 8.82908C9.985 8.82908 9.68892 8.89692 9.43775 9.15817C9.1875 9.43317 8.47983 10.0932 8.47983 11.4269C8.47983 12.7607 9.46067 14.0532 9.59725 14.2457C9.73383 14.4244 11.5268 17.1744 14.2723 18.3569C14.9268 18.6319 15.4364 18.7969 15.8343 18.9335C16.4888 19.1416 17.0855 19.1123 17.5576 19.0444C18.0837 18.961 19.1773 18.3835 19.4056 17.7373C19.6393 17.091 19.6393 16.5548 19.5706 16.431C19.5028 16.3073 19.3231 16.2385 19.0481 16.1148M14.0559 22.9375H14.0413C12.4188 22.9375 10.8109 22.4975 9.4075 21.6725L9.0775 21.4763L5.64 22.3701L6.56125 19.0288L6.34217 18.6851C5.43467 17.2404 4.9525 15.5767 4.9525 13.8634C4.9525 8.87217 9.03625 4.80217 14.066 4.80217C16.4988 4.80217 18.7823 5.75092 20.5019 7.46967C22.2207 9.17375 23.1685 11.4572 23.1685 13.8772C23.1648 18.8675 19.0802 22.9384 14.0614 22.9384M21.81 6.16158C19.72 4.14125 16.97 3 14.0413 3C8.00775 3 3.09533 7.8895 3.09258 13.9019C3.09258 15.8232 3.59583 17.6969 4.55467 19.3515L3 25L8.80708 23.4857C10.4076 24.3501 12.2079 24.8093 14.0413 24.8121H14.0467C20.083 24.8121 24.9973 19.9208 25 13.9074C25 10.9961 23.8633 8.25617 21.7962 6.19733" fill="black"/>
</g>
<defs>
<clipPath id="clip0_59_2131">
<rect width="22" height="22" fill="white" transform="translate(3 3)"/>
</clipPath>
</defs>
</svg>
